<?xml version="1.0" encoding="UTF-8" standalone="no"?>
<!-- Created with Inkscape (http://www.inkscape.org/) -->

<svg
   xmlns:dc="http://purl.org/dc/elements/1.1/"
   xmlns:cc="http://creativecommons.org/ns#"
   xmlns:rdf="http://www.w3.org/1999/02/22-rdf-syntax-ns#"
   xmlns:svg="http://www.w3.org/2000/svg"
   xmlns="http://www.w3.org/2000/svg"
   xmlns:sodipodi="http://sodipodi.sourceforge.net/DTD/sodipodi-0.dtd"
   xmlns:inkscape="http://www.inkscape.org/namespaces/inkscape"
   width="135.46666mm"
   height="135.46666mm"
   viewBox="0 0 135.46666 135.46666"
   version="1.1"
   id="svg8"
   inkscape:version="0.92.4 (5da689c313, 2019-01-14)"
   sodipodi:docname="Group.svg">
  <defs
     id="defs2" />
  <sodipodi:namedview
     id="base"
     pagecolor="#ffffff"
     bordercolor="#666666"
     borderopacity="1.0"
     inkscape:pageopacity="0.0"
     inkscape:pageshadow="2"
     inkscape:zoom="0.98994949"
     inkscape:cx="180.29985"
     inkscape:cy="158.20106"
     inkscape:document-units="mm"
     inkscape:current-layer="layer1"
     showgrid="false"
     fit-margin-top="0"
     fit-margin-left="0"
     fit-margin-right="0"
     fit-margin-bottom="0"
     inkscape:window-width="1920"
     inkscape:window-height="1001"
     inkscape:window-x="-9"
     inkscape:window-y="-9"
     inkscape:window-maximized="1" />
  <metadata
     id="metadata5">
    <rdf:RDF>
      <cc:Work
         rdf:about="">
        <dc:format>image/svg+xml</dc:format>
        <dc:type
           rdf:resource="http://purl.org/dc/dcmitype/StillImage" />
        <dc:title></dc:title>
      </cc:Work>
    </rdf:RDF>
  </metadata>
  <g
     inkscape:label="Layer 1"
     inkscape:groupmode="layer"
     id="layer1"
     transform="translate(-33.564293,-17.977982)">
    <path
       style="fill:#FFFFFF;stroke-width:0.25413755"
       d="m 77.067011,150.24761 c -2.069832,-1.02458 -2.515741,-2.86098 -1.754582,-7.22587 0.956827,-5.48687 4.074583,-10.69925 8.365649,-13.98597 1.006442,-0.77089 1.918209,-1.40161 2.026146,-1.40161 0.107939,0 0.920488,0.6004 1.805664,1.33423 4.429919,3.67247 8.451994,5.13805 14.100652,5.13805 5.66701,0 9.66799,-1.46324 14.14119,-5.17171 1.9161,-1.58852 1.81121,-1.60322 4.46437,0.62567 3.97367,3.33822 6.78519,8.25815 7.69254,13.46134 0.7504,4.30314 0.28401,6.23452 -1.74241,7.21551 -1.06812,0.51708 -1.37224,0.52355 -24.5724,0.52335 -23.047938,-1.9e-4 -23.510417,-0.01 -24.526819,-0.51299 z m -38.374554,-8.89486 c -2.069832,-1.02459 -2.515742,-2.86099 -1.754582,-7.22588 0.956817,-5.48687 4.07458,-10.69924 8.36565,-13.98597 1.006436,-0.77088 1.918205,-1.40161 2.026147,-1.40161 0.107933,0 0.920481,0.60041 1.805662,1.33424 4.429922,3.67246 8.45199,5.13804 14.100652,5.13804 5.667007,0 9.667982,-1.46323 14.141194,-5.1717 1.845571,-1.53006 1.87543,-1.52978 3.773484,0.0348 l 0.92066,0.7589 -1.475915,0.96518 c -2.104163,1.37602 -5.38951,4.50712 -7.064869,6.73317 -2.555621,3.39566 -4.763038,8.13317 -5.474414,11.74906 l -0.311821,1.58499 -14.007962,-2e-4 c -13.537166,-1.9e-4 -14.042771,-0.0174 -15.043886,-0.51299 z m 96.472493,-1.0718 c -0.71021,-3.60994 -2.91868,-8.35324 -5.46372,-11.73485 -1.71803,-2.28275 -4.90519,-5.33005 -7.01983,-6.71176 l -1.54768,-1.01127 1.37996,-1.04189 c 0.75897,-0.57304 1.46577,-1.04189 1.57065,-1.04189 0.10489,0 0.91494,0.60041 1.80012,1.33424 4.42991,3.67246 8.45199,5.13804 14.10064,5.13804 5.66701,0 9.66799,-1.46323 14.14119,-5.1717 1.9161,-1.58852 1.81122,-1.60322 4.46438,0.62566 3.97367,3.33822 6.78519,8.25815 7.69254,13.46134 0.7504,4.30315 0.284,6.23454 -1.74241,7.21552 -1.05188,0.5092 -1.46485,0.52355 -15.07276,0.52355 H 135.47677 Z M 98.10107,126.10298 c -2.608666,-0.68341 -4.213124,-1.62341 -6.279009,-3.67867 -3.449185,-3.43145 -4.189011,-5.83273 -4.189011,-13.59644 0,-7.76369 0.739826,-10.164965 4.189011,-13.596417 2.095682,-2.084908 3.67603,-2.999168 6.379352,-3.690568 2.486057,-0.635835 4.332187,-0.635835 6.818247,0 2.72398,0.696686 4.30145,1.608186 6.37947,3.686222 3.45335,3.453388 4.1889,5.841613 4.1889,13.600763 0,7.75669 -0.72778,10.11723 -4.19325,13.60068 -2.0663,2.07702 -3.63939,2.98664 -6.37512,3.68633 -2.43609,0.62305 -4.50846,0.61949 -6.91859,-0.0119 z m -38.374555,-8.89487 c -2.608671,-0.6834 -4.213124,-1.6234 -6.279008,-3.67866 -3.449189,-3.43145 -4.189016,-5.83273 -4.189016,-13.596425 0,-7.763705 0.739827,-10.164988 4.189016,-13.596435 2.095679,-2.084908 3.676033,-2.999167 6.379353,-3.690568 2.486061,-0.635835 4.33219,-0.635835 6.818251,0 2.723981,0.696686 4.301444,1.608186 6.379459,3.686222 3.453348,3.45339 4.1889,5.84162 4.1889,13.600781 0,7.756665 -0.727782,10.117215 -4.193251,13.600665 -2.066288,2.07701 -3.63938,2.98664 -6.375108,3.68632 -2.436105,0.62307 -4.508463,0.6195 -6.918596,-0.0119 z m 76.749115,0 c -2.60867,-0.6834 -4.21313,-1.6234 -6.27901,-3.67866 -3.44919,-3.43145 -4.18902,-5.83273 -4.18902,-13.596425 0,-7.763705 0.73983,-10.164988 4.18902,-13.596435 2.09568,-2.084908 3.67602,-2.999167 6.37935,-3.690568 2.48606,-0.635835 4.33218,-0.635835 6.81824,0 2.72399,0.696686 4.30146,1.608186 6.37947,3.686222 3.45335,3.45339 4.1889,5.84162 4.1889,13.600781 0,7.756665 -0.72778,10.117215 -4.19325,13.600665 -2.06629,2.07701 -3.63939,2.98664 -6.37512,3.68632 -2.43609,0.62307 -4.50845,0.6195 -6.91858,-0.0119 z M 99.56367,75.819296 C 98.109535,74.875973 74.244885,50.891731 73.170981,49.294349 69.938178,44.485703 69.044265,38.705371 70.721612,33.455929 72.5855,27.622717 76.754652,23.45015 82.677397,21.490379 c 1.743112,-0.576777 2.486175,-0.675299 5.20979,-0.69076 3.632492,-0.02062 5.402347,0.363269 8.245312,1.788444 1.787415,0.89603 3.17263,1.855826 4.626061,3.20533 l 0.79991,0.74271 1.87579,-1.539568 c 3.67104,-3.013039 8.34529,-4.572634 12.78265,-4.265015 2.89683,0.200823 4.56237,0.649507 7.12227,1.918682 4.50931,2.235685 7.74225,6.127692 9.30895,11.206696 0.69935,2.267174 0.82537,6.846893 0.25175,9.149001 -0.43479,1.744942 -1.75278,4.657623 -2.83754,6.27079 -1.151,1.711679 -25.5716,26.187113 -26.72626,26.786278 -1.33231,0.691349 -2.44152,0.619703 -3.77241,-0.243671 z"
       id="path3750"
       inkscape:connector-curvature="0" />
  </g>
</svg>
