<?xml version="1.0" encoding="UTF-8" standalone="no"?>
<!-- Created with Inkscape (http://www.inkscape.org/) -->

<svg
   xmlns:dc="http://purl.org/dc/elements/1.1/"
   xmlns:cc="http://creativecommons.org/ns#"
   xmlns:rdf="http://www.w3.org/1999/02/22-rdf-syntax-ns#"
   xmlns:svg="http://www.w3.org/2000/svg"
   xmlns="http://www.w3.org/2000/svg"
   xmlns:sodipodi="http://sodipodi.sourceforge.net/DTD/sodipodi-0.dtd"
   xmlns:inkscape="http://www.inkscape.org/namespaces/inkscape"
   width="135.46666mm"
   height="135.46666mm"
   viewBox="0 0 135.46666 135.46666"
   version="1.1"
   id="svg3821"
   inkscape:version="0.92.4 (5da689c313, 2019-01-14)"
   sodipodi:docname="Model.svg">
  <defs
     id="defs3815" />
  <sodipodi:namedview
     id="base"
     pagecolor="#ffffff"
     bordercolor="#666666"
     borderopacity="1.0"
     inkscape:pageopacity="0.0"
     inkscape:pageshadow="2"
     inkscape:zoom="0.7"
     inkscape:cx="309.3156"
     inkscape:cy="320.2816"
     inkscape:document-units="mm"
     inkscape:current-layer="layer1"
     showgrid="false"
     fit-margin-top="0"
     fit-margin-left="0"
     fit-margin-right="0"
     fit-margin-bottom="0"
     inkscape:window-width="1920"
     inkscape:window-height="1001"
     inkscape:window-x="-9"
     inkscape:window-y="-9"
     inkscape:window-maximized="1" />
  <metadata
     id="metadata3818">
    <rdf:RDF>
      <cc:Work
         rdf:about="">
        <dc:format>image/svg+xml</dc:format>
        <dc:type
           rdf:resource="http://purl.org/dc/dcmitype/StillImage" />
        <dc:title></dc:title>
      </cc:Work>
    </rdf:RDF>
  </metadata>
  <g
     inkscape:label="Layer 1"
     inkscape:groupmode="layer"
     id="layer1"
     transform="translate(-37.344048,-46.326202)">
    <path
       style="fill:#fff;stroke-width:0.26458332"
       d="m 101.12753,181.75671 c -8.476195,-1.26169 -15.934915,-6.78811 -19.624415,-14.54041 -1.22521,-2.57437 -2.16496,-6.34164 -2.3727,-9.51168 l -0.16658,-2.54182 -5.67566,-3.17418 c -3.12161,-1.7458 -5.78037,-3.14581 -5.90836,-3.11113 -0.78434,0.21254 -23.21938,12.92306 -23.06407,13.0669 0.10502,0.0973 1.97689,0.67393 4.1597,1.28145 4.22822,1.17681 5.15938,1.73231 5.15938,3.07788 0,0.7299 -1.07028,1.95759 -1.70659,1.95759 -0.70281,0 -12.40542,-3.39927 -13.29458,-3.86169 -0.84762,-0.44082 -1.66758,-1.74698 -1.66758,-2.65637 0,-1.12673 3.54854,-12.95786 4.05633,-13.52412 0.76308,-0.85097 2.09213,-0.8027 2.80363,0.10182 0.3016,0.38343 0.54837,0.86543 0.54837,1.07111 0,0.20569 -0.53423,2.23509 -1.18718,4.50978 -0.65294,2.2747 -1.13484,4.18815 -1.07088,4.25211 0.064,0.064 5.42022,-2.83866 11.9028,-6.45026 l 11.78651,-6.56655 v -21.37436 -21.37437 l 0.7276,-0.78456 c 0.84454,-0.91066 15.64692,-9.277947 16.41341,-9.277947 0.93596,0 1.90899,1.009245 1.90899,1.980059 0,1.207852 -0.43363,1.521852 -7.4963,5.428272 -3.28871,1.819006 -5.98351,3.369766 -5.98846,3.446126 -0.0139,0.21439 32.935545,18.51429 33.335435,18.51429 0.4065,0 33.33218,-18.28237 33.32744,-18.50545 -0.002,-0.0812 -0.74587,-0.5528 -1.65365,-1.04794 -0.90778,-0.49515 -8.35369,-4.63257 -16.54646,-9.194272 -8.19278,-4.561699 -14.99283,-8.294002 -15.11121,-8.294002 -0.1184,0 -3.31908,1.726407 -7.112635,3.836459 -7.40883,4.120946 -8.32801,4.446656 -9.16728,3.248419 -0.54457,-0.777478 -0.52235,-1.873983 0.0511,-2.523874 0.25466,-0.288586 3.52888,-2.216428 7.27604,-4.284093 L 102.5827,81.170506 V 67.645614 54.120723 l -3.264742,3.227591 c -2.739173,2.707996 -3.394663,3.22759 -4.071733,3.22759 -1.14135,0 -1.95029,-0.740153 -1.98078,-1.812329 -0.0229,-0.804195 0.42293,-1.33018 5.04382,-5.951064 l 5.068905,-5.068898 h 1.31937 1.31937 l 4.9195,4.894792 c 2.70572,2.692135 5.01229,5.132299 5.12571,5.422587 0.26608,0.680991 -0.169,1.923646 -0.78985,2.255914 -1.26562,0.677339 -1.8243,0.360287 -5.1383,-2.916002 -1.76635,-1.746249 -3.2961,-3.174999 -3.39946,-3.174999 -0.10335,0 -0.15705,6.042421 -0.11934,13.427603 l 0.0686,13.427604 17.82221,9.928928 c 10.35034,5.766279 18.08737,10.2372 18.45468,10.66423 l 0.63249,0.7353 v 9.52228 9.52227 l -0.64944,0.64943 c -0.82768,0.82769 -1.84219,0.82769 -2.66988,0 l -0.64943,-0.64943 v -7.18408 c 0,-5.64196 -0.071,-7.15548 -0.33073,-7.05082 -0.1819,0.0733 -7.59354,4.18194 -16.47031,9.1303 l -16.13959,8.99704 -0.0753,2.66462 c -0.0733,2.5923 -0.0589,2.66775 0.52917,2.78037 4.08496,0.78224 5.42341,1.12786 7.28987,1.88241 4.57497,1.84954 9.68793,6.21289 12.11883,10.34208 1.25166,2.12612 2.63446,5.36542 2.89878,6.79059 0.10121,0.5457 0.3196,0.98704 0.4853,0.98076 0.16571,-0.006 2.38488,-1.18834 4.9315,-2.62678 l 4.6302,-2.61534 0.0701,-8.1421 c 0.0682,-7.93007 0.0849,-8.15793 0.64144,-8.75031 0.80935,-0.86152 2.12598,-0.82032 2.84119,0.0889 0.52677,0.66968 0.54837,1.00617 0.54837,8.54416 v 7.84703 l 11.79088,6.56426 c 6.48498,3.61034 11.84124,6.51389 11.9028,6.45234 0.0616,-0.0616 -0.42231,-1.97304 -1.07526,-4.24774 -0.65295,-2.27469 -1.18717,-4.30409 -1.18717,-4.50978 0,-0.20568 0.24676,-0.68768 0.54837,-1.07111 0.73762,-0.93774 2.11376,-0.96395 2.82962,-0.0539 0.48447,0.6159 4.03034,12.47216 4.03034,13.47618 0,0.84178 -0.7747,2.15968 -1.52563,2.59534 -0.74784,0.43387 -12.69119,3.92272 -13.42862,3.92272 -0.64292,0 -1.7145,-1.22352 -1.7145,-1.95759 0,-1.33029 0.93468,-1.8857 5.15937,-3.06584 2.18282,-0.60975 4.05853,-1.19387 4.16826,-1.29804 0.1574,-0.14944 -22.27606,-12.84838 -23.08652,-13.06862 -0.11492,-0.0312 -2.76496,1.37197 -5.88898,3.11822 l -5.68004,3.175 -0.15966,2.42314 c -0.29177,4.42847 -1.46127,8.26428 -3.67051,12.0389 -1.58961,2.71594 -6.00708,7.09208 -8.87247,8.78946 -4.85363,2.87517 -11.18147,4.1482 -16.60591,3.34077 z m 8.71498,-4.36429 c 3.81223,-1.01689 6.67186,-2.56966 9.4527,-5.13275 3.09703,-2.85452 4.99619,-5.91273 6.15491,-9.91124 2.23798,-7.72281 0.14128,-15.64513 -5.64758,-21.3392 -3.09849,-3.04775 -5.78482,-4.57346 -10.10806,-5.74089 -2.31731,-0.62575 -7.67284,-0.62575 -9.990142,0 -3.973733,1.07305 -6.794463,2.59558 -9.600733,5.18211 -3.09342,2.8512 -4.94948,5.83904 -6.21356,10.00243 -0.61696,2.03203 -0.70753,2.78751 -0.70753,5.90218 0,3.11467 0.0906,3.87016 0.70753,5.90219 1.2164,4.00638 3.04868,7.02794 5.89552,9.72219 3.25417,3.07975 6.60894,4.80356 11.077385,5.692 2.27285,0.45189 6.76244,0.31239 8.97956,-0.27902 z M 91.124835,164.79233 c -1.22131,-0.71049 -1.07234,-2.77635 0.24344,-3.37586 0.37068,-0.16889 2.03164,-0.29891 3.81858,-0.29891 h 3.16255 v -1.30189 -1.30189 l -3.46313,-0.0872 c -3.42007,-0.0861 -3.47106,-0.0964 -4.10104,-0.82953 -0.78165,-0.90963 -0.80332,-1.48955 -0.0896,-2.39696 0.54377,-0.69129 0.57817,-0.69714 4.10104,-0.69714 h 3.55267 v -1.45521 -1.45521 h -3.16255 c -1.78693,0 -3.4479,-0.13001 -3.81857,-0.2989 -1.34243,-0.61165 -1.46173,-2.71 -0.19269,-3.38918 0.30462,-0.16302 2.23431,-0.28067 4.60375,-0.28067 3.808173,0 4.138813,0.0401 4.974485,0.60326 1.50094,1.01148 1.55654,1.3018 1.55654,8.12799 0,6.82619 -0.0556,7.11652 -1.55654,8.128 -0.838342,0.56496 -1.157222,0.60274 -5.023235,0.59521 -2.38872,-0.005 -4.32933,-0.12514 -4.60575,-0.28594 z m 15.406305,-0.47942 -0.7734,-0.77339 v -7.18446 -7.18445 l 0.7734,-0.7734 c 0.76675,-0.76675 0.80001,-0.7734 3.87191,-0.7734 3.70268,0 4.79307,0.28561 6.36162,1.6663 2.09008,1.83976 2.35453,2.63327 2.35453,7.06495 0,4.33081 -0.23721,5.09902 -2.14738,6.95436 -1.44853,1.40695 -2.80576,1.77689 -6.51906,1.77689 -3.12684,0 -3.15348,-0.005 -3.92162,-0.7734 z m 7.75524,-3.96697 c 0.85312,-0.76184 0.86523,-0.80564 0.95552,-3.45598 0.14508,-4.25845 -0.58039,-5.2974 -3.69901,-5.2974 h -1.8164 v 4.7625 4.7625 h 1.84791 c 1.66754,0 1.93225,-0.0753 2.71198,-0.77162 z M 79.952635,149.80663 c 0.10062,-0.54571 0.53796,-1.88516 0.97185,-2.97657 3.09508,-7.78523 10.51977,-13.96668 18.615543,-15.49841 1.309692,-0.24779 2.530082,-0.48969 2.711982,-0.53755 0.23765,-0.0625 0.33024,-0.85265 0.32899,-2.8073 l -0.002,-2.72028 -2.18107,-1.22417 c -10.468385,-5.87563 -30.344795,-16.89978 -30.470105,-16.89978 -0.0864,0 -0.12659,8.64097 -0.0893,19.20215 l 0.0679,19.20216 4.63021,2.6174 c 2.54662,1.43957 4.76579,2.62126 4.93149,2.62597 0.16571,0.005 0.38362,-0.43792 0.48424,-0.98362 z"
       id="path3834"
       inkscape:connector-curvature="0" />
  </g>
</svg>
