<?xml version="1.0" encoding="UTF-8" standalone="no"?>
<!-- Created with Inkscape (http://www.inkscape.org/) -->

<svg
   xmlns:dc="http://purl.org/dc/elements/1.1/"
   xmlns:cc="http://creativecommons.org/ns#"
   xmlns:rdf="http://www.w3.org/1999/02/22-rdf-syntax-ns#"
   xmlns:svg="http://www.w3.org/2000/svg"
   xmlns="http://www.w3.org/2000/svg"
   xmlns:sodipodi="http://sodipodi.sourceforge.net/DTD/sodipodi-0.dtd"
   xmlns:inkscape="http://www.inkscape.org/namespaces/inkscape"
   width="144.49777mm"
   height="144.49777mm"
   viewBox="0 0 144.49777 144.49777"
   version="1.1"
   id="svg3758"
   inkscape:version="0.92.4 (5da689c313, 2019-01-14)"
   sodipodi:docname="Scuba.svg">
  <defs
     id="defs3752" />
  <sodipodi:namedview
     id="base"
     pagecolor="#ffffff"
     bordercolor="#666666"
     borderopacity="1.0"
     inkscape:pageopacity="0.0"
     inkscape:pageshadow="2"
     inkscape:zoom="0.7"
     inkscape:cx="-525.52753"
     inkscape:cy="71.212924"
     inkscape:document-units="mm"
     inkscape:current-layer="layer1"
     showgrid="false"
     fit-margin-top="0"
     fit-margin-left="0"
     fit-margin-right="0"
     fit-margin-bottom="0"
     inkscape:window-width="1920"
     inkscape:window-height="1001"
     inkscape:window-x="-9"
     inkscape:window-y="-9"
     inkscape:window-maximized="1" />
  <metadata
     id="metadata3755">
    <rdf:RDF>
      <cc:Work
         rdf:about="">
        <dc:format>image/svg+xml</dc:format>
        <dc:type
           rdf:resource="http://purl.org/dc/dcmitype/StillImage" />
        <dc:title></dc:title>
      </cc:Work>
    </rdf:RDF>
  </metadata>
  <g
     inkscape:label="Layer 1"
     inkscape:groupmode="layer"
     id="layer1"
     transform="translate(-40.388023,-26.691595)">
    <path
       style="fill:#fff;stroke-width:0.26151168"
       d="m 116.45882,166.10507 c -4.75423,-0.95066 -7.85442,-2.58741 -10.96858,-5.79087 -3.91889,-4.03126 -5.649489,-8.30006 -5.649489,-13.93543 0,-5.63536 1.730599,-9.90418 5.649489,-13.93542 3.91889,-4.03127 8.06872,-5.81149 13.54699,-5.81149 5.47828,0 9.6281,1.78022 13.547,5.81149 3.91888,4.03124 5.64949,8.30006 5.64949,13.93542 0,5.63537 -1.73061,9.90417 -5.64949,13.93543 -2.61377,2.68871 -5.03032,4.17405 -8.39723,5.16141 -1.87929,0.5511 -6.31377,0.91228 -7.72818,0.62946 z m 6.44603,-19.7263 v -3.97851 h -3.86762 -3.86762 v 3.97851 3.97851 h 3.86762 3.86762 z m -37.902665,7.78142 c -14.656371,-1.04761 -28.120903,-10.18971 -34.898818,-23.69548 -3.416402,-6.80757 -4.47482,-11.60852 -4.721751,-21.41767 l -0.161919,-6.43193 h 7.772699 7.772709 l 8.23e-4,5.10575 c 5.38e-4,3.35227 0.133954,5.88861 0.388458,7.38524 1.715871,10.09013 8.700032,18.46537 18.18927,21.81215 2.965261,1.04581 6.061616,1.50348 10.171701,1.50348 h 3.672099 l -0.529472,2.18819 c -0.402877,1.66499 -0.529473,3.04432 -0.529473,5.76885 0,2.72453 0.126596,4.10386 0.529473,5.76884 l 0.529472,2.1882 -3.512493,-0.0463 c -1.931872,-0.0255 -4.034622,-0.0836 -4.672778,-0.12927 z m 34.487205,-36.05015 c -4.05738,-0.75469 -7.29677,-2.62737 -10.38345,-6.00261 -1.06118,-1.16038 -1.92927,-2.18939 -1.92912,-2.2867 1.7e-4,-0.0973 1.13145,-0.57188 2.51396,-1.05462 1.38251,-0.48273 3.59329,-1.48982 4.91282,-2.23796 2.44531,-1.38642 6.71507,-4.80526 7.73613,-6.1944 l 0.56512,-0.768845 0.56513,0.768845 c 1.02106,1.38914 5.29081,4.80798 7.73612,6.1944 1.31955,0.74814 3.5303,1.75523 4.91282,2.23796 1.38251,0.48274 2.51379,0.95732 2.51395,1.05462 1.6e-4,0.0973 -0.86794,1.12632 -1.9291,2.2867 -3.1588,3.4541 -6.32716,5.2543 -10.59501,6.01989 -2.67567,0.47998 -3.96413,0.47662 -6.61937,-0.0173 z M 88.029223,102.21079 C 81.642511,100.97372 76.113247,97.352521 72.607366,92.110768 71.400842,90.30687 69.851038,86.782454 69.237138,84.446546 68.445896,81.435788 68.445311,76.05642 69.236224,73.041469 71.514349,64.353819 77.958622,57.832794 86.471852,55.600572 l 2.269355,-0.595039 h 34.163963 34.16397 l 2.26935,0.595039 c 6.99772,1.834845 12.48321,6.394769 15.55684,12.931913 1.74121,3.703268 2.2352,5.960075 2.2352,10.211523 0,4.251446 -0.49399,6.508254 -2.2352,10.211522 -3.07363,6.537139 -8.55912,11.09707 -15.55684,12.93192 -2.09666,0.54975 -2.81873,0.59357 -9.4889,0.57571 -8.38349,-0.0224 -9.47735,-0.21717 -13.92343,-2.478837 -4.59913,-2.339507 -7.26002,-5.081783 -10.80324,-11.133641 -1.11926,-1.911697 -2.11725,-3.475816 -2.21775,-3.475816 -0.10051,0 -1.09848,1.564119 -2.21775,3.475816 -3.54322,6.051858 -6.20413,8.794134 -10.80323,11.133641 -4.24287,2.158297 -5.60711,2.417527 -13.278825,2.523347 -4.991072,0.0689 -7.056954,-0.003 -8.575819,-0.29688 z M 45.294632,90.679553 v -3.978515 h 7.735232 7.735241 v 3.978515 3.978515 h -7.735241 -7.735232 z m 0,-36.071871 V 30.471357 h 7.735232 7.735241 V 54.607682 78.744008 H 53.029864 45.294632 Z M 75.97774,51.25035 c 0,-0.305186 1.553038,-3.035972 2.917607,-5.130167 1.635757,-2.510404 6.407421,-7.413993 8.950927,-9.198411 4.047082,-2.839263 8.556697,-4.797762 13.513296,-5.868743 1.84696,-0.399076 4.24496,-0.449055 21.54528,-0.449055 17.30032,0 19.69833,0.04998 21.54529,0.449055 4.95659,1.070981 9.46621,3.02948 13.51329,5.868743 2.54351,1.784418 7.31516,6.688007 8.95092,9.198411 1.36457,2.094195 2.91761,4.824981 2.91761,5.130167 0,0.09924 -0.93369,-0.302472 -2.07487,-0.892699 -2.85306,-1.475619 -6.18766,-2.58089 -9.19189,-3.046706 -3.76799,-0.584235 -67.552705,-0.584235 -71.320694,0 -3.004237,0.465816 -6.338831,1.571087 -9.191891,3.046706 -1.141183,0.590227 -2.074875,0.991941 -2.074875,0.892699 z"
       id="path3771"
       inkscape:connector-curvature="0" />
  </g>
</svg>
