<?xml version="1.0" encoding="UTF-8" standalone="no"?>
<!-- Created with Inkscape (http://www.inkscape.org/) -->

<svg
   xmlns:dc="http://purl.org/dc/elements/1.1/"
   xmlns:cc="http://creativecommons.org/ns#"
   xmlns:rdf="http://www.w3.org/1999/02/22-rdf-syntax-ns#"
   xmlns:svg="http://www.w3.org/2000/svg"
   xmlns="http://www.w3.org/2000/svg"
   xmlns:sodipodi="http://sodipodi.sourceforge.net/DTD/sodipodi-0.dtd"
   xmlns:inkscape="http://www.inkscape.org/namespaces/inkscape"
   width="8.8648939mm"
   height="8.8648939mm"
   viewBox="0 0 8.8648939 8.8648939"
   version="1.1"
   id="svg3800"
   inkscape:version="0.92.4 (5da689c313, 2019-01-14)"
   sodipodi:docname="World.svg">
  <defs
     id="defs3794" />
  <sodipodi:namedview
     id="base"
     pagecolor="#ffffff"
     bordercolor="#666666"
     borderopacity="1.0"
     inkscape:pageopacity="0.0"
     inkscape:pageshadow="2"
     inkscape:zoom="15.839192"
     inkscape:cx="9.3955615"
     inkscape:cy="17.851087"
     inkscape:document-units="mm"
     inkscape:current-layer="layer1"
     showgrid="false"
     fit-margin-top="0"
     fit-margin-left="0"
     fit-margin-right="0"
     fit-margin-bottom="0"
     inkscape:window-width="1920"
     inkscape:window-height="1001"
     inkscape:window-x="-9"
     inkscape:window-y="-9"
     inkscape:window-maximized="1" />
  <metadata
     id="metadata3797">
    <rdf:RDF>
      <cc:Work
         rdf:about="">
        <dc:format>image/svg+xml</dc:format>
        <dc:type
           rdf:resource="http://purl.org/dc/dcmitype/StillImage" />
        <dc:title></dc:title>
      </cc:Work>
    </rdf:RDF>
  </metadata>
  <g
     inkscape:label="Layer 1"
     inkscape:groupmode="layer"
     id="layer1"
     transform="translate(-94.597305,-86.948502)">
    <path
       style="fill:#fff;stroke-width:0.01731425"
       d="m 98.628266,95.801789 c -1.056693,-0.100751 -2.029843,-0.568887 -2.770996,-1.332993 -0.341805,-0.35239 -0.571969,-0.678479 -0.786825,-1.114749 -0.275831,-0.560083 -0.406508,-1.040469 -0.454077,-1.669254 -0.05725,-0.756811 0.110717,-1.576325 0.468763,-2.287051 l 0.117754,-0.233743 0.102465,-0.02752 c 0.236451,-0.0635 0.237174,-0.06266 0.06285,0.07355 l -0.159368,0.124516 0.125464,0.0835 0.125463,0.0835 0.259714,-0.0011 c 0.223479,-9.3e-4 0.309235,-0.01022 0.614656,-0.06659 0.195218,-0.03603 0.360177,-0.06085 0.366577,-0.05515 0.0064,0.0057 0.113531,0.176346 0.238071,0.379218 l 0.226435,0.368857 0.0013,0.358341 0.0013,0.358341 0.315141,0.424199 c 0.286004,0.38498 0.320235,0.424696 0.370247,0.429573 l 0.05511,0.0054 0.005,-0.145187 0.005,-0.145187 0.116708,0.243698 0.116709,0.243699 0.36809,0.08357 0.368091,0.08357 0.173142,0.169975 c 0.166596,0.163549 0.178216,0.17145 0.307328,0.208967 0.0738,0.02145 0.134185,0.04671 0.134185,0.05615 0,0.0094 -0.06306,0.149484 -0.140132,0.311216 l -0.140133,0.294058 0.04295,0.08016 c 0.02362,0.04409 0.09742,0.181449 0.164001,0.305245 0.106539,0.198094 0.132971,0.267376 0.220419,0.577748 l 0.09936,0.352662 -0.102092,0.413521 -0.102091,0.41352 0.02294,0.261781 c 0.01261,0.14398 0.02063,0.263943 0.01782,0.266585 -0.0028,0.0026 -0.09996,0.01339 -0.21587,0.02388 -0.238482,0.02158 -0.512099,0.02141 -0.741533,-4.64e-4 z m 1.489334,-0.258585 c 0.0217,-0.07679 0.0421,-0.141932 0.0455,-0.144772 0.003,-0.0028 0.17198,-0.115612 0.37471,-0.250606 0.24181,-0.161023 0.37566,-0.260962 0.38915,-0.290561 0.0113,-0.02481 0.0597,-0.149952 0.10755,-0.278085 l 0.087,-0.232968 0.26087,-0.120815 0.26087,-0.120815 0.24124,-0.460236 c 0.13269,-0.253129 0.24325,-0.468748 0.2457,-0.479153 0.002,-0.0104 -0.16785,-0.119735 -0.37844,-0.242957 l -0.3829,-0.22404 -0.1991,-0.228144 -0.19911,-0.228145 -0.11502,-0.01094 c -0.0633,-0.006 -0.228,-0.04111 -0.36608,-0.07799 -0.13808,-0.03687 -0.33693,-0.0805 -0.44189,-0.09695 l -0.190839,-0.02992 -0.175353,0.0512 -0.175352,0.0512 -0.113003,-0.12477 c -0.101483,-0.112049 -0.123879,-0.12782 -0.219685,-0.154702 l -0.106682,-0.02993 0.01223,-0.163164 0.01223,-0.163164 h -0.130357 -0.130357 l -0.07671,0.08903 -0.07671,0.08903 -0.04422,-0.176364 -0.04422,-0.176365 0.170286,-0.08545 0.170287,-0.08545 0.186306,0.087 c 0.159048,0.07427 0.199097,0.08625 0.273729,0.08188 l 0.08742,-0.0051 0.03587,-0.140889 c 0.03567,-0.140115 0.03732,-0.142637 0.300374,-0.458828 l 0.264506,-0.317938 0.36623,-0.183796 0.36622,-0.183796 0.17314,0.02302 c 0.27315,0.03631 0.2557,0.04267 0.27727,-0.101162 l 0.0117,-0.07791 -0.26779,-0.274918 c -0.25513,-0.261936 -0.27239,-0.284117 -0.36537,-0.469704 l -0.0976,-0.194785 h -0.14729 c -0.13057,0 -0.15757,-0.0057 -0.23792,-0.05061 -0.0678,-0.03784 -0.13826,-0.05757 -0.279349,-0.07822 -0.103789,-0.01519 -0.190221,-0.02553 -0.192071,-0.02298 -0.0019,0.0025 -0.02076,0.105863 -0.04202,0.229588 -0.02126,0.123725 -0.04001,0.225659 -0.04167,0.226521 -0.0017,8.6e-4 -0.1082,-0.01858 -0.236758,-0.0432 l -0.233743,-0.04476 -0.01392,-0.127872 c -0.0077,-0.07033 -0.01043,-0.136982 -0.0062,-0.148117 0.0043,-0.01113 0.07287,-0.03389 0.152436,-0.05057 0.07957,-0.01668 0.156794,-0.03381 0.171615,-0.03807 0.01918,-0.0055 0.04362,-0.08226 0.08477,-0.266112 l 0.05782,-0.258364 0.07972,0.0316 c 0.04385,0.01738 0.124509,0.04993 0.179252,0.07234 l 0.09953,0.04074 1.8e-5,0.113716 1.7e-5,0.113717 0.134183,0.05506 c 0.0738,0.03028 0.17486,0.067 0.22456,0.08158 0.0899,0.02638 0.0909,0.02624 0.19479,-0.02618 0.0574,-0.02899 0.10442,-0.06019 0.10442,-0.06933 0,-0.02603 -0.18588,-0.232957 -0.39653,-0.441414 l -0.19215,-0.190161 v -0.09119 c 0,-0.108304 -0.0123,-0.105746 0.24467,-0.05094 l 0.18407,0.03926 0.17187,0.155026 c 0.16913,0.152555 0.17289,0.157646 0.23584,0.319511 0.0352,0.09047 0.0796,0.215129 0.0987,0.277028 0.0344,0.111354 0.0376,0.115153 0.31117,0.359881 0.18456,0.165124 0.30034,0.255768 0.34833,0.272699 0.0395,0.01395 0.0742,0.02536 0.077,0.02536 0.003,0 0.046,-0.06666 0.096,-0.148128 0.05,-0.08147 0.10315,-0.154417 0.11821,-0.162103 0.0151,-0.0077 0.14814,-0.02331 0.29574,-0.03473 0.25878,-0.02001 0.41808,-0.04019 0.49581,-0.06282 0.0319,-0.0093 0.0508,0.01153 0.13726,0.150893 0.58644,0.945411 0.78503,2.161087 0.53498,3.274874 -0.32323,1.439742 -1.37019,2.642582 -2.75259,3.162439 -0.16348,0.06148 -0.47162,0.156588 -0.50731,0.156588 -0.009,0 0.001,-0.06282 0.0231,-0.139609 z m -4.412631,-7.073351 c 0.159444,-0.18464 0.459745,-0.46236 0.675864,-0.625045 0.941469,-0.708692 2.145224,-1.013469 3.30246,-0.836146 0.383727,0.0588 0.902277,0.210511 1.151337,0.336849 l 0.0767,0.03891 -0.0767,0.01107 c -0.0463,0.0067 -0.16147,-0.0023 -0.29071,-0.0227 l -0.214,-0.03377 -0.1524,0.102469 c -0.12949,0.08707 -0.276747,0.22025 -0.352349,0.318669 -0.0145,0.01888 -0.120834,0.03494 -0.412616,0.06234 -0.329548,0.03094 -0.4149,0.03373 -0.528084,0.01723 -0.07425,-0.01082 -0.14846,-0.02357 -0.164905,-0.02832 -0.02265,-0.0065 -0.05696,0.03319 -0.14155,0.163963 -0.06141,0.09493 -0.125866,0.176752 -0.143242,0.181821 -0.01738,0.0051 -0.167943,0.0145 -0.334592,0.02096 l -0.303,0.01174 -0.201032,-0.05634 -0.201031,-0.05634 -0.174982,0.09821 -0.174981,0.09821 -0.411785,0.05865 c -0.313736,0.04469 -0.47597,0.07736 -0.681347,0.137199 -0.148258,0.0432 -0.284608,0.08425 -0.302999,0.09121 -0.02025,0.0077 0.0018,-0.02814 0.05594,-0.09084 z m 2.470512,-0.707248 c 0.160451,-0.04215 0.295178,-0.08008 0.299395,-0.0843 0.0061,-0.0061 -0.100764,-0.205407 -0.126355,-0.235757 -0.0034,-0.004 -0.06392,0.01077 -0.134479,0.0329 l -0.128291,0.04023 -0.09757,-0.0396 -0.09757,-0.0396 -0.04671,0.04318 c -0.02569,0.02375 -0.09251,0.07644 -0.148472,0.117091 l -0.101758,0.07391 0.144904,0.0844 c 0.0797,0.04642 0.144967,0.08435 0.145044,0.08429 6.9e-5,-6.2e-5 0.131417,-0.0346 0.291867,-0.07674 z m 1.171326,-0.105839 c 0.08094,-0.0066 0.164641,-0.01865 0.185993,-0.02673 0.04325,-0.01638 0.40855,-0.287052 0.416234,-0.308416 0.0027,-0.0075 -0.05782,-0.05002 -0.134465,-0.09455 l -0.13935,-0.08097 -0.246448,0.13654 c -0.135547,0.0751 -0.296066,0.167943 -0.356709,0.206326 l -0.11026,0.06979 0.09258,0.06235 c 0.05092,0.03429 0.104431,0.05905 0.118917,0.05502 0.01449,-0.004 0.09256,-0.01274 0.173508,-0.01936 z"
       id="path3813"
       inkscape:connector-curvature="0" />
  </g>
</svg>
